<svg xmlns="http://www.w3.org/2000/svg" viewBox="0 0 100 100" color="#111111" role="img">
  <path d="M 77.68 50 C 77.75 50.32 77.99 51.24 78.08 51.58 C 78.17 51.91 78.45 52.87 78.55 53.22 C 78.65 53.56 78.94 54.57 79.04 54.93 C 79.15 55.3 79.46 56.36 79.57 56.75 C 79.68 57.14 80.02 58.27 80.14 58.68 C 80.27 59.1 80.65 60.32 80.79 60.77 C 80.93 61.23 81.36 62.56 81.52 63.05 C 81.67 63.55 82.13 65.01 82.28 65.54 C 82.43 66.08 82.86 67.66 82.99 68.23 C 83.11 68.8 83.43 70.47 83.51 71.05 C 83.58 71.64 83.7 73.33 83.69 73.9 C 83.68 74.48 83.52 76.1 83.4 76.63 C 83.28 77.17 82.78 78.62 82.54 79.08 C 82.3 79.54 81.44 80.73 81.08 81.08 C 80.73 81.44 79.54 82.3 79.08 82.54 C 78.62 82.78 77.17 83.28 76.63 83.4 C 76.1 83.52 74.48 83.68 73.9 83.69 C 73.33 83.7 71.64 83.58 71.05 83.51 C 70.47 83.43 68.8 83.11 68.23 82.99 C 67.66 82.86 66.08 82.43 65.54 82.28 C 65.01 82.13 63.55 81.67 63.05 81.52 C 62.56 81.36 61.23 80.93 60.77 80.79 C 60.32 80.65 59.1 80.27 58.68 80.14 C 58.27 80.02 57.14 79.68 56.75 79.57 C 56.36 79.46 55.3 79.15 54.93 79.04 C 54.57 78.94 53.56 78.65 53.22 78.55 C 52.87 78.45 51.91 78.17 51.58 78.08 C 51.24 77.99 50.32 77.75 50 77.68 C 49.68 77.61 48.78 77.45 48.46 77.42 C 48.14 77.39 47.24 77.38 46.91 77.41 C 46.58 77.43 45.64 77.61 45.29 77.71 C 44.94 77.81 43.91 78.2 43.52 78.38 C 43.13 78.55 41.97 79.15 41.53 79.39 C 41.09 79.62 39.77 80.38 39.28 80.65 C 38.78 80.92 37.29 81.73 36.75 82 C 36.2 82.26 34.58 83.01 34 83.23 C 33.41 83.46 31.71 84.02 31.12 84.16 C 30.53 84.3 28.84 84.56 28.26 84.59 C 27.69 84.62 26.1 84.53 25.57 84.43 C 25.05 84.33 23.63 83.86 23.18 83.63 C 22.72 83.41 21.54 82.59 21.17 82.26 C 20.8 81.93 19.88 80.82 19.59 80.41 C 19.31 79.99 18.64 78.68 18.43 78.21 C 18.23 77.73 17.77 76.31 17.64 75.81 C 17.5 75.3 17.21 73.83 17.14 73.32 C 17.06 72.8 16.91 71.33 16.87 70.81 C 16.84 70.3 16.81 68.85 16.82 68.34 C 16.82 67.83 16.91 66.41 16.96 65.91 C 17.01 65.42 17.22 64.02 17.32 63.53 C 17.43 63.05 17.78 61.69 17.94 61.22 C 18.09 60.75 18.6 59.44 18.79 58.99 C 18.99 58.54 19.63 57.3 19.86 56.88 C 20.09 56.46 20.79 55.31 21.03 54.92 C 21.27 54.54 21.96 53.49 22.17 53.14 C 22.38 52.78 22.95 51.83 23.11 51.51 C 23.26 51.19 23.61 50.31 23.68 50 C 23.75 49.69 23.8 48.84 23.76 48.53 C 23.73 48.22 23.46 47.33 23.31 46.99 C 23.17 46.66 22.6 45.68 22.37 45.3 C 22.13 44.93 21.34 43.81 21.05 43.39 C 20.76 42.97 19.86 41.7 19.55 41.23 C 19.24 40.76 18.36 39.34 18.08 38.83 C 17.8 38.32 17.06 36.8 16.84 36.27 C 16.63 35.73 16.13 34.17 16 33.63 C 15.88 33.08 15.67 31.54 15.64 31.01 C 15.62 30.48 15.71 29.01 15.79 28.5 C 15.87 28 16.23 26.62 16.4 26.16 C 16.56 25.69 17.16 24.43 17.4 24 C 17.64 23.58 18.42 22.43 18.71 22.04 C 19.01 21.66 19.93 20.62 20.27 20.27 C 20.62 19.93 21.66 19.01 22.04 18.71 C 22.43 18.42 23.58 17.64 24 17.4 C 24.43 17.16 25.69 16.56 26.16 16.4 C 26.62 16.23 28 15.87 28.5 15.79 C 29.01 15.71 30.48 15.62 31.01 15.64 C 31.54 15.67 33.08 15.88 33.63 16 C 34.17 16.13 35.73 16.63 36.27 16.84 C 36.8 17.06 38.32 17.8 38.83 18.08 C 39.34 18.36 40.76 19.24 41.23 19.55 C 41.7 19.86 42.97 20.76 43.39 21.05 C 43.81 21.34 44.93 22.13 45.3 22.37 C 45.68 22.6 46.66 23.17 46.99 23.31 C 47.33 23.46 48.22 23.73 48.53 23.76 C 48.84 23.8 49.69 23.75 50 23.68 C 50.31 23.61 51.19 23.26 51.51 23.11 C 51.83 22.95 52.78 22.38 53.14 22.17 C 53.49 21.96 54.54 21.27 54.92 21.03 C 55.31 20.79 56.46 20.09 56.88 19.86 C 57.3 19.63 58.54 18.99 58.99 18.79 C 59.44 18.6 60.75 18.09 61.22 17.94 C 61.69 17.78 63.05 17.43 63.53 17.32 C 64.02 17.22 65.42 17.01 65.91 16.96 C 66.41 16.91 67.83 16.82 68.34 16.82 C 68.85 16.81 70.3 16.84 70.81 16.87 C 71.33 16.91 72.8 17.06 73.32 17.14 C 73.83 17.21 75.3 17.5 75.81 17.64 C 76.31 17.77 77.73 18.23 78.21 18.43 C 78.68 18.64 79.99 19.31 80.41 19.59 C 80.82 19.88 81.93 20.8 82.26 21.17 C 82.59 21.54 83.41 22.72 83.63 23.18 C 83.86 23.63 84.33 25.05 84.43 25.57 C 84.53 26.1 84.62 27.69 84.59 28.26 C 84.56 28.84 84.3 30.53 84.16 31.12 C 84.02 31.71 83.46 33.41 83.23 34 C 83.01 34.58 82.26 36.2 82 36.75 C 81.73 37.29 80.92 38.78 80.65 39.28 C 80.38 39.77 79.62 41.09 79.39 41.53 C 79.15 41.97 78.55 43.13 78.38 43.52 C 78.2 43.91 77.81 44.94 77.71 45.29 C 77.61 45.64 77.43 46.58 77.41 46.91 C 77.38 47.24 77.39 48.14 77.42 48.46 C 77.45 48.78 77.61 49.68 77.68 50 Z" fill="currentColor"/>
</svg>
